<svg width="50" height="50" viewBox="0 0 50 50" fill="none" xmlns="http://www.w3.org/2000/svg">
<path opacity="0.8" d="M24 41.9314C21.6974 45.578 17.6315 48 13 48C5.8203 48 0 42.1797 0 35C0 27.8203 5.8203 22 13 22C17.7611 22 21.752 24.6222 24 28.3066C21.4353 32.5327 21.2482 37.8809 24 41.9314Z" fill="#181717"></path>
<path opacity="0.6" d="M36.9851 22C41.2978 22.0203 45.5064 24.1849 47.9607 28.1126C51.7654 34.2014 49.9138 42.2216 43.8251 46.0262C37.7363 49.8309 29.7161 47.9793 25.9115 41.8905C23.3885 37.8529 23.4974 33.0789 25.4307 29.22C30.3737 29.1555 35.0083 26.4801 36.9851 22Z" fill="#181717"></path>
<path d="M13.3889 19.8398C11.4309 15.9971 11.4265 11.2646 13.7931 7.28334C17.4618 1.11172 25.439 -0.9173 31.6106 2.75139C37.7822 6.42008 39.8112 14.3972 36.1425 20.5688C33.7097 24.6614 29.4164 26.7521 25.1007 26.8018C22.7784 22.4377 18.2768 19.5441 13.3889 19.8398Z" fill="#181717"></path>
</svg>
